# Made in Blockbench 4.8.3
mtllib bracket2x.mtl

o tube
v -0.16119823520296522 -0.0625 0.09815952255126034
v -0.16119823520296522 0.0625 0.09815952255126034
v -0.11564224224577446 -0.0625 0.07185775775422557
v -0.11564224224577446 0.0625 0.07185775775422557
v -0.08934047744873966 -0.0625 0.02630176479703477
v -0.08934047744873966 0.0625 0.02630176479703477
v -0.08934047744873966 -0.0625 -0.026301764797034822
v -0.08934047744873966 0.0625 -0.026301764797034822
v -0.11564224224577443 -0.0625 -0.07185775775422559
v -0.11564224224577443 0.0625 -0.07185775775422559
v -0.1611982352029652 -0.0625 -0.09815952255126037
v -0.1611982352029652 0.0625 -0.09815952255126037
v -0.2209936490538903 -0.0625 -0.12500000000000003
v -0.2209936490538903 0.0625 -0.12500000000000003
v -0.21380176479703478 -0.0625 -0.0981595225512604
v -0.21380176479703478 0.0625 -0.0981595225512604
v -0.2790063509461097 -0.0625 -0.0915063509461097
v -0.2790063509461097 0.0625 -0.0915063509461097
v -0.2593577577542256 -0.0625 -0.07185775775422562
v -0.2593577577542256 0.0625 -0.07185775775422562
v -0.3125 -0.0625 -0.03349364905389034
v -0.3125 0.0625 -0.03349364905389034
v -0.28565952255126037 -0.0625 -0.0263017647970348
v -0.28565952255126037 0.0625 -0.0263017647970348
v -0.3125 -0.0625 0.033493649053890254
v -0.3125 0.0625 0.033493649053890254
v -0.28565952255126037 -0.0625 0.026301764797034725
v -0.28565952255126037 0.0625 0.026301764797034725
v -0.2790063509461097 -0.0625 0.09150635094610962
v -0.2790063509461097 0.0625 0.09150635094610962
v -0.25935775775422565 -0.0625 0.07185775775422554
v -0.25935775775422565 0.0625 0.07185775775422554
v -0.22099364905389035 -0.0625 0.12499999999999997
v -0.22099364905389035 0.0625 0.12499999999999997
v -0.21380176479703483 -0.0625 0.09815952255126034
v -0.21380176479703483 0.0625 0.09815952255126034
v 0.2209936490538903 -0.0625 0.12499999999999997
v 0.2209936490538903 0.0625 0.12499999999999997
v 0.21380176479703478 -0.0625 0.09815952255126034
v 0.21380176479703478 0.0625 0.09815952255126034
v 0.2790063509461096 -0.0625 0.09150635094610965
v 0.2790063509461096 0.0625 0.09150635094610965
v 0.25935775775422554 -0.0625 0.07185775775422557
v 0.25935775775422554 0.0625 0.07185775775422557
v 0.3125 -0.0625 0.03349364905389031
v 0.3125 0.0625 0.03349364905389031
v 0.28565952255126037 -0.0625 0.02630176479703477
v 0.28565952255126037 0.0625 0.02630176479703477
v 0.3125 -0.0625 -0.033493649053890365
v 0.3125 0.0625 -0.033493649053890365
v 0.28565952255126037 -0.0625 -0.026301764797034822
v 0.28565952255126037 0.0625 -0.026301764797034822
v 0.27900635094610965 -0.0625 -0.09150635094610968
v 0.27900635094610965 0.0625 -0.09150635094610968
v 0.25935775775422554 -0.0625 -0.07185775775422559
v 0.25935775775422554 0.0625 -0.07185775775422559
v 0.22099364905389035 -0.0625 -0.125
v 0.22099364905389035 0.0625 -0.125
v 0.21380176479703483 -0.0625 -0.09815952255126037
v 0.21380176479703483 0.0625 -0.09815952255126037
v 2.7755575615628914e-17 -0.0625 -0.125
v 2.7755575615628914e-17 0.0625 -0.125
v 0.16119823520296522 -0.0625 -0.0981595225512604
v 0.16119823520296522 0.0625 -0.0981595225512604
v -2.7755575615628914e-17 -0.0625 -0.09150635094610969
v -2.7755575615628914e-17 0.0625 -0.09150635094610969
v 0.11564224224577441 -0.0625 -0.07185775775422562
v 0.11564224224577441 0.0625 -0.07185775775422562
v -1.3877787807814457e-17 -0.0625 -0.03349364905389035
v -1.3877787807814457e-17 0.0625 -0.03349364905389035
v 0.08934047744873963 -0.0625 -0.0263017647970348
v 0.08934047744873963 0.0625 -0.0263017647970348
v -1.3877787807814457e-17 0.0625 0.03349364905389028
v 0.08934047744873963 -0.0625 0.026301764797034725
v 0.08934047744873963 0.0625 0.026301764797034725
v -4.163336342344337e-17 -0.0625 0.09150635094610964
v -4.163336342344337e-17 0.0625 0.09150635094610964
v 0.11564224224577435 -0.0625 0.07185775775422554
v 0.11564224224577435 0.0625 0.07185775775422554
v -2.7755575615628914e-17 -0.0625 0.12499999999999997
v 0.1611982352029652 -0.0625 0.09815952255126034
v 0.1611982352029652 0.0625 0.09815952255126034
v -2.7755575615628914e-17 0.0625 0.12499999999999997
v -1.3877787807814457e-17 -0.0625 0.03349364905389028
vt 0.377475 0.71875
vt 0.351171875 0.71875
vt 0.351171875 0.65625
vt 0.377475 0.65625
vt 0.07565 0.9553312500000001
vt 0.098428125 0.9421781250000001
vt 0.15625 0.9520031250000001
vt 0.15625 0.96875
vt 0.15625 0.6875
vt 0.15625 0.7042468749999999
vt 0.098428125 0.714071875
vt 0.07565 0.70091875
vt 0.336325 0.53125
vt 0.310025 0.53125
vt 0.310025 0.46875
vt 0.336325 0.46875
vt 0.098428125 0.9421781250000001
vt 0.11158125 0.9194
vt 0.15625 0.922996875
vt 0.15625 0.9520031250000001
vt 0.15625 0.7042468749999999
vt 0.15625 0.7332531250000001
vt 0.11158124999999999 0.73685
vt 0.098428125 0.714071875
vt 0.310025 0.53125
vt 0.283725 0.53125
vt 0.283725 0.46875
vt 0.310025 0.46875
vt 0.11158125 0.9194
vt 0.11158125000000002 0.8931
vt 0.15625000000000003 0.8895031250000001
vt 0.15625 0.922996875
vt 0.15625 0.7332531250000001
vt 0.15625 0.7667468749999999
vt 0.11158124999999999 0.76315
vt 0.11158124999999999 0.73685
vt 0.283725 0.53125
vt 0.257425 0.53125
vt 0.257425 0.46875
vt 0.283725 0.46875
vt 0.11158125000000002 0.8931
vt 0.09842812500000003 0.870321875
vt 0.15625000000000003 0.860496875
vt 0.15625000000000003 0.8895031250000001
vt 0.15625 0.7667468749999999
vt 0.15625 0.7957531250000001
vt 0.09842812499999998 0.785928125
vt 0.11158124999999999 0.76315
vt 0.21132812499999998 0.5625
vt 0.185025 0.5625
vt 0.185025 0.5
vt 0.21132812499999998 0.5
vt 0.09842812500000003 0.870321875
vt 0.07565000000000004 0.85716875
vt 0.15625000000000006 0.84375
vt 0.15625000000000006 0.860496875
vt 0.15625 0.7957531250000001
vt 0.15625 0.8125
vt 0.07564999999999998 0.79908125
vt 0.09842812499999998 0.785928125
vt 0.5 0.9375
vt 0.6104968749999999 0.9375
vt 0.6104968749999999 1
vt 0.5 1
vt 0.185025 0.5625
vt 0.158725 0.5625
vt 0.158725 0.5
vt 0.185025 0.5
vt 0.07565000000000004 0.85716875
vt 0.04935000000000005 0.85716875
vt 0.04575312500000006 0.84375
vt 0.15625000000000006 0.84375
vt 0.15625 0.8125
vt 0.04575312499999999 0.8125
vt 0.04934999999999999 0.79908125
vt 0.07564999999999998 0.79908125
vt 0.6104968749999999 0.9375
vt 0.643990625 0.9375
vt 0.643990625 1
vt 0.6104968749999999 1
vt 0.158725 0.5625
vt 0.13242187500000002 0.5625
vt 0.13242187500000002 0.5
vt 0.158725 0.5
vt 0.049350000000000005 0.85716875
vt 0.026571874999999995 0.870321875
vt 0.016746874999999994 0.860496875
vt 0.045753125000000006 0.84375
vt 0.045753125000000006 0.8125
vt 0.016746874999999994 0.7957531250000001
vt 0.026571874999999995 0.785928125
vt 0.049350000000000005 0.79908125
vt 0.356009375 0.84375
vt 0.389503125 0.84375
vt 0.389503125 0.90625
vt 0.356009375 0.90625
vt 0.555075 0.71875
vt 0.528775 0.71875
vt 0.528775 0.65625
vt 0.555075 0.65625
vt 0.026571874999999995 0.870321875
vt 0.013418750000000007 0.8931
vt 0 0.8895031250000001
vt 0.016746874999999994 0.860496875
vt 0.016746874999999994 0.7957531250000001
vt 0 0.7667468749999999
vt 0.013418750000000007 0.76315
vt 0.026571874999999995 0.785928125
vt 0.389503125 0.84375
vt 0.422996875 0.84375
vt 0.422996875 0.90625
vt 0.389503125 0.90625
vt 0.528775 0.71875
vt 0.502475 0.71875
vt 0.502475 0.65625
vt 0.528775 0.65625
vt 0.013418750000000007 0.8931
vt 0.013418750000000007 0.9194
vt 0 0.922996875
vt 0 0.8895031250000001
vt 0 0.7667468749999999
vt 0 0.7332531250000001
vt 0.013418750000000007 0.73685
vt 0.013418750000000007 0.76315
vt 0.422996875 0.84375
vt 0.456490625 0.84375
vt 0.456490625 0.90625
vt 0.422996875 0.90625
vt 0.502475 0.71875
vt 0.476175 0.71875
vt 0.476175 0.65625
vt 0.502475 0.65625
vt 0.013418750000000007 0.9194
vt 0.026571874999999995 0.9421781250000001
vt 0.016746874999999994 0.9520031250000001
vt 0 0.922996875
vt 0 0.7332531250000001
vt 0.016746874999999994 0.7042468749999999
vt 0.026571874999999995 0.714071875
vt 0.013418750000000007 0.73685
vt 0.012259375000000017 0.59375
vt 0.045753125000000006 0.59375
vt 0.045753125000000006 0.65625
vt 0.012259375000000017 0.65625
vt 0.430078125 0.71875
vt 0.403775 0.71875
vt 0.403775 0.65625
vt 0.430078125 0.65625
vt 0.026571874999999995 0.9421781250000001
vt 0.049350000000000005 0.9553312500000001
vt 0.045753125000000006 0.96875
vt 0.016746874999999994 0.9520031250000001
vt 0.016746874999999994 0.7042468749999999
vt 0.045753125000000006 0.6875
vt 0.049350000000000005 0.70091875
vt 0.026571874999999995 0.714071875
vt 0.045753125000000006 0.59375
vt 0.15625 0.59375
vt 0.15625 0.65625
vt 0.045753125000000006 0.65625
vt 0.403775 0.71875
vt 0.377475 0.71875
vt 0.377475 0.65625
vt 0.403775 0.65625
vt 0.049350000000000005 0.9553312500000001
vt 0.07565 0.9553312500000001
vt 0.15625 0.96875
vt 0.045753125000000006 0.96875
vt 0.045753125000000006 0.6875
vt 0.15625 0.6875
vt 0.07565 0.70091875
vt 0.049350000000000005 0.70091875
vt 0.266746875 0.59375
vt 0.300240625 0.59375
vt 0.300240625 0.65625
vt 0.266746875 0.65625
vt 0.377475 0.625
vt 0.351171875 0.625
vt 0.351171875 0.5625
vt 0.377475 0.5625
vt 0.26315 0.9553312500000001
vt 0.285928125 0.9421781250000001
vt 0.295753125 0.9520031250000001
vt 0.266746875 0.96875
vt 0.266746875 0.6875
vt 0.295753125 0.7042468749999999
vt 0.285928125 0.714071875
vt 0.26315 0.70091875
vt 0.356009375 0.75
vt 0.389503125 0.75
vt 0.389503125 0.8125
vt 0.356009375 0.8125
vt 0.461325 0.53125
vt 0.435025 0.53125
vt 0.435025 0.46875
vt 0.461325 0.46875
vt 0.285928125 0.9421781250000001
vt 0.29908124999999997 0.9194
vt 0.3125 0.922996875
vt 0.295753125 0.9520031250000001
vt 0.295753125 0.7042468749999999
vt 0.3125 0.7332531250000001
vt 0.29908124999999997 0.73685
vt 0.285928125 0.714071875
vt 0.389503125 0.75
vt 0.422996875 0.75
vt 0.422996875 0.8125
vt 0.389503125 0.8125
vt 0.435025 0.53125
vt 0.408725 0.53125
vt 0.408725 0.46875
vt 0.435025 0.46875
vt 0.29908124999999997 0.9194
vt 0.29908124999999997 0.8931
vt 0.3125 0.8895031250000001
vt 0.3125 0.922996875
vt 0.3125 0.7332531250000001
vt 0.3125 0.7667468749999999
vt 0.29908124999999997 0.76315
vt 0.29908124999999997 0.73685
vt 0.422996875 0.75
vt 0.456490625 0.75
vt 0.456490625 0.8125
vt 0.422996875 0.8125
vt 0.408725 0.53125
vt 0.382425 0.53125
vt 0.382425 0.46875
vt 0.408725 0.46875
vt 0.29908124999999997 0.8931
vt 0.285928125 0.870321875
vt 0.295753125 0.860496875
vt 0.3125 0.8895031250000001
vt 0.3125 0.7667468749999999
vt 0.295753125 0.7957531250000001
vt 0.285928125 0.785928125
vt 0.29908124999999997 0.76315
vt 0.356009375 0.9375
vt 0.389503125 0.9375
vt 0.389503125 1
vt 0.356009375 1
vt 0.08632812499999998 0.5625
vt 0.060025 0.5625
vt 0.060025 0.5
vt 0.08632812499999998 0.5
vt 0.285928125 0.870321875
vt 0.26315 0.85716875
vt 0.266746875 0.84375
vt 0.295753125 0.860496875
vt 0.295753125 0.7957531250000001
vt 0.266746875 0.8125
vt 0.26315 0.79908125
vt 0.285928125 0.785928125
vt 0.389503125 0.9375
vt 0.5 0.9375
vt 0.5 1
vt 0.389503125 1
vt 0.060025 0.5625
vt 0.03372500000000001 0.5625
vt 0.03372500000000001 0.5
vt 0.060025 0.5
vt 0.26315 0.85716875
vt 0.23685 0.85716875
vt 0.15625 0.84375
vt 0.266746875 0.84375
vt 0.266746875 0.8125
vt 0.15625 0.8125
vt 0.23685 0.79908125
vt 0.26315 0.79908125
vt 0.03372500000000001 0.5625
vt 0.007421875000000015 0.5625
vt 0.007421875000000015 0.5
vt 0.03372500000000001 0.5
vt 0.23685 0.85716875
vt 0.214071875 0.870321875
vt 0.15625 0.860496875
vt 0.15625 0.84375
vt 0.15625 0.8125
vt 0.15625 0.7957531250000001
vt 0.214071875 0.785928125
vt 0.23685 0.79908125
vt 0.555075 0.625
vt 0.528775 0.625
vt 0.528775 0.5625
vt 0.555075 0.5625
vt 0.214071875 0.870321875
vt 0.20091875 0.8931
vt 0.15625 0.8895031250000001
vt 0.15625 0.860496875
vt 0.15625 0.7957531250000001
vt 0.15625 0.7667468749999999
vt 0.20091875 0.76315
vt 0.214071875 0.785928125
vt 0.528775 0.625
vt 0.502475 0.625
vt 0.502475 0.5625
vt 0.528775 0.5625
vt 0.20091875 0.8931
vt 0.20091875 0.9194
vt 0.15625 0.922996875
vt 0.15625 0.8895031250000001
vt 0.15625 0.7667468749999999
vt 0.15625 0.7332531250000001
vt 0.20091875 0.73685
vt 0.20091875 0.76315
vt 0.502475 0.625
vt 0.476175 0.625
vt 0.476175 0.5625
vt 0.502475 0.5625
vt 0.20091875 0.9194
vt 0.214071875 0.9421781250000001
vt 0.15625 0.9520031250000001
vt 0.15625 0.922996875
vt 0.15625 0.7332531250000001
vt 0.15625 0.7042468749999999
vt 0.214071875 0.714071875
vt 0.20091875 0.73685
vt 0.430078125 0.625
vt 0.403775 0.625
vt 0.403775 0.5625
vt 0.430078125 0.5625
vt 0.214071875 0.9421781250000001
vt 0.23685 0.9553312500000001
vt 0.15625 0.96875
vt 0.15625 0.9520031250000001
vt 0.15625 0.7042468749999999
vt 0.15625 0.6875
vt 0.23685 0.70091875
vt 0.214071875 0.714071875
vt 0.15625 0.59375
vt 0.266746875 0.59375
vt 0.266746875 0.65625
vt 0.15625 0.65625
vt 0.403775 0.625
vt 0.377475 0.625
vt 0.377475 0.5625
vt 0.403775 0.5625
vt 0.23685 0.9553312500000001
vt 0.26315 0.9553312500000001
vt 0.266746875 0.96875
vt 0.15625 0.96875
vt 0.15625 0.6875
vt 0.266746875 0.6875
vt 0.26315 0.70091875
vt 0.23685 0.70091875
vn -0.49999999999999994 0 -0.8660254037844387
vn 0 -1 0
vn 0 1 0
vn -0.8660254037844386 0 -0.5000000000000001
vn 0 -1 0
vn 0 1 0
vn -1 0 0
vn 0 -1 0
vn 0 1 0
vn -0.8660254037844389 0 0.4999999999999999
vn 0 -1 0
vn 0 1 0
vn -0.49999999999999994 0 0.8660254037844387
vn 0 -1 0
vn 0 1 0
vn 1.2559444913668352e-16 0 -1
vn -5.276371344244935e-16 0 1
vn 0 -1 0
vn 0 1 0
vn -0.4999999999999993 0 -0.866025403784439
vn 0.49999999999999956 0 0.8660254037844392
vn 0 -1 0
vn 0 1 0
vn -0.8660254037844392 0 -0.4999999999999993
vn 0.8660254037844392 0 0.49999999999999956
vn 0 -1 0
vn 0 1 0
vn -1 0 0
vn 1 0 0
vn 0 -1 0
vn 0 1 0
vn -0.8660254037844392 0 0.4999999999999993
vn 0.8660254037844396 0 -0.4999999999999988
vn 0 -1 0
vn 0 1 0
vn -0.4999999999999999 0 0.8660254037844386
vn 0.4999999999999999 0 -0.8660254037844387
vn 0 -1 0
vn 0 1 0
vn 0 0 1
vn 0 0 -1
vn 0 -1 0
vn 0 1 0
vn 0.5 0 0.8660254037844387
vn -0.49999999999999994 0 -0.8660254037844387
vn 0 -1 0
vn 0 1 0
vn 0.8660254037844382 0 0.5000000000000007
vn -0.8660254037844384 0 -0.5000000000000004
vn 0 -1 0
vn 0 1 0
vn 1 0 0
vn -1 0 0
vn 0 -1 0
vn 0 1 0
vn 0.8660254037844387 0 -0.5000000000000003
vn -0.8660254037844385 0 0.5000000000000007
vn 0 -1 0
vn 0 1 0
vn 0.5 0 -0.8660254037844387
vn -0.5000000000000004 0 0.8660254037844384
vn 0 -1 0
vn 0 1 0
vn 0 0 -1
vn -5.276371344244932e-16 0 1
vn 0 -1 0
vn 0 1 0
vn 0.49999999999999956 0 0.8660254037844392
vn 0 -1 0
vn 0 1 0
vn 0.8660254037844392 0 0.49999999999999956
vn 0 -1 0
vn 0 1 0
vn 1 0 0
vn 0 -1 0
vn 0 1 0
vn 0.8660254037844396 0 -0.4999999999999988
vn 0 -1 0
vn 0 1 0
vn 0.49999999999999967 0 -0.8660254037844389
vn 0 -1 0
vn 0 1 0
vn 0 0 1
vn 0 0 -1
vn 0 -1 0
vn 0 1 0
usemtl m_e8919877-0a46-b927-7654-59792a400904
f 2/1/1 4/2/1 3/3/1 1/4/1
f 1/5/2 3/6/2 76/7/2 80/8/2
f 83/9/3 77/10/3 4/11/3 2/12/3
f 4/13/4 6/14/4 5/15/4 3/16/4
f 3/17/5 5/18/5 84/19/5 76/20/5
f 77/21/6 73/22/6 6/23/6 4/24/6
f 6/25/7 8/26/7 7/27/7 5/28/7
f 5/29/8 7/30/8 69/31/8 84/32/8
f 73/33/9 70/34/9 8/35/9 6/36/9
f 8/37/10 10/38/10 9/39/10 7/40/10
f 7/41/11 9/42/11 65/43/11 69/44/11
f 70/45/12 66/46/12 10/47/12 8/48/12
f 10/49/13 12/50/13 11/51/13 9/52/13
f 9/53/14 11/54/14 61/55/14 65/56/14
f 66/57/15 62/58/15 12/59/15 10/60/15
f 61/61/16 13/62/16 14/63/16 62/64/16
f 12/65/17 16/66/17 15/67/17 11/68/17
f 11/69/18 15/70/18 13/71/18 61/72/18
f 62/73/19 14/74/19 16/75/19 12/76/19
f 13/77/20 17/78/20 18/79/20 14/80/20
f 16/81/21 20/82/21 19/83/21 15/84/21
f 15/85/22 19/86/22 17/87/22 13/88/22
f 14/89/23 18/90/23 20/91/23 16/92/23
f 17/93/24 21/94/24 22/95/24 18/96/24
f 20/97/25 24/98/25 23/99/25 19/100/25
f 19/101/26 23/102/26 21/103/26 17/104/26
f 18/105/27 22/106/27 24/107/27 20/108/27
f 21/109/28 25/110/28 26/111/28 22/112/28
f 24/113/29 28/114/29 27/115/29 23/116/29
f 23/117/30 27/118/30 25/119/30 21/120/30
f 22/121/31 26/122/31 28/123/31 24/124/31
f 25/125/32 29/126/32 30/127/32 26/128/32
f 28/129/33 32/130/33 31/131/33 27/132/33
f 27/133/34 31/134/34 29/135/34 25/136/34
f 26/137/35 30/138/35 32/139/35 28/140/35
f 29/141/36 33/142/36 34/143/36 30/144/36
f 32/145/37 36/146/37 35/147/37 31/148/37
f 31/149/38 35/150/38 33/151/38 29/152/38
f 30/153/39 34/154/39 36/155/39 32/156/39
f 33/157/40 80/158/40 83/159/40 34/160/40
f 36/161/41 2/162/41 1/163/41 35/164/41
f 35/165/42 1/166/42 80/167/42 33/168/42
f 34/169/43 83/170/43 2/171/43 36/172/43
f 37/173/44 41/174/44 42/175/44 38/176/44
f 40/177/45 44/178/45 43/179/45 39/180/45
f 39/181/46 43/182/46 41/183/46 37/184/46
f 38/185/47 42/186/47 44/187/47 40/188/47
f 41/189/48 45/190/48 46/191/48 42/192/48
f 44/193/49 48/194/49 47/195/49 43/196/49
f 43/197/50 47/198/50 45/199/50 41/200/50
f 42/201/51 46/202/51 48/203/51 44/204/51
f 45/205/52 49/206/52 50/207/52 46/208/52
f 48/209/53 52/210/53 51/211/53 47/212/53
f 47/213/54 51/214/54 49/215/54 45/216/54
f 46/217/55 50/218/55 52/219/55 48/220/55
f 49/221/56 53/222/56 54/223/56 50/224/56
f 52/225/57 56/226/57 55/227/57 51/228/57
f 51/229/58 55/230/58 53/231/58 49/232/58
f 50/233/59 54/234/59 56/235/59 52/236/59
f 53/237/60 57/238/60 58/239/60 54/240/60
f 56/241/61 60/242/61 59/243/61 55/244/61
f 55/245/62 59/246/62 57/247/62 53/248/62
f 54/249/63 58/250/63 60/251/63 56/252/63
f 57/253/64 61/254/64 62/255/64 58/256/64
f 60/257/65 64/258/65 63/259/65 59/260/65
f 59/261/66 63/262/66 61/263/66 57/264/66
f 58/265/67 62/266/67 64/267/67 60/268/67
f 64/269/68 68/270/68 67/271/68 63/272/68
f 63/273/69 67/274/69 65/275/69 61/276/69
f 62/277/70 66/278/70 68/279/70 64/280/70
f 68/281/71 72/282/71 71/283/71 67/284/71
f 67/285/72 71/286/72 69/287/72 65/288/72
f 66/289/73 70/290/73 72/291/73 68/292/73
f 72/293/74 75/294/74 74/295/74 71/296/74
f 71/297/75 74/298/75 84/299/75 69/300/75
f 70/301/76 73/302/76 75/303/76 72/304/76
f 75/305/77 79/306/77 78/307/77 74/308/77
f 74/309/78 78/310/78 76/311/78 84/312/78
f 73/313/79 77/314/79 79/315/79 75/316/79
f 79/317/80 82/318/80 81/319/80 78/320/80
f 78/321/81 81/322/81 80/323/81 76/324/81
f 77/325/82 83/326/82 82/327/82 79/328/82
f 80/329/83 37/330/83 38/331/83 83/332/83
f 82/333/84 40/334/84 39/335/84 81/336/84
f 81/337/85 39/338/85 37/339/85 80/340/85
f 83/341/86 38/342/86 40/343/86 82/344/86