# Made in Blockbench 4.8.3
mtllib logo.mtl

o base
v -0.37500000000000006 0.0625 -0.37499999999999994
v -0.37499999999999994 0.0625 0.37500000000000006
v -0.37500000000000006 0 -0.37499999999999994
v -0.37499999999999994 0 0.37500000000000006
v 0.37499999999999994 0.0625 -0.37500000000000006
v 0.37500000000000006 0.0625 0.37499999999999994
v 0.37499999999999994 0 -0.37500000000000006
v 0.37500000000000006 0 0.37499999999999994
vt 0.96875 0.46875
vt 0.59375 0.46875
vt 0.59375 0.4375
vt 0.96875 0.4375
vt 0.96875 0.375
vt 0.96875 0.40625
vt 0.59375 0.40625
vt 0.59375 0.375
vt 0 0.625
vt 0.375 0.625
vt 0.375 1
vt 0 1
vt 0.375 0.21875
vt 0.375 0.59375
vt 0 0.59375
vt 0 0.21875
vt 1 0.96875
vt 1 1
vt 0.625 1
vt 0.625 0.96875
vt 1 0.78125
vt 0.625 0.78125
vt 0.625 0.75
vt 1 0.75
vn -1 0 1.2246467991473532e-16
vn 1 0 -1.2246467991473532e-16
vn 0 1 0
vn 0 -1 0
vn -1.2246467991473532e-16 0 -1
vn 1.2246467991473532e-16 0 1
usemtl m_7a3f162c-0131-4880-f728-2a5f2dc6f035
f 2/1/1 1/2/1 3/3/1 4/4/1
f 7/5/2 5/6/2 6/7/2 8/8/2
f 5/9/3 1/10/3 2/11/3 6/12/3
f 4/13/4 3/14/4 7/15/4 8/16/4
f 3/17/5 1/18/5 5/19/5 7/20/5
f 6/21/6 2/22/6 4/23/6 8/24/6
o v
v 0.14476532513886392 0.03125000000000053 0.2700143627695561
v 0.14476532513886392 0.15625000000000053 0.27001436276955587
v 0.21286042374526407 0.031249999999999653 -0.1755056228043625
v 0.21286042374526407 0.15624999999999967 -0.17550562280436274
v -0.2402934697730609 0.03125000000000007 0.035803508065987304
v -0.2402934697730609 0.15625000000000008 0.03580350806598707
vt 0.46875 0.46875
vt 0.40625 0.46875
vt 0.40625 0.25
vt 0.46875 0.25
vt 0.5625 0.25
vt 0.5625 0.46875
vt 0.5 0.46875
vt 0.5 0.25
vt 0.65625 0.5
vt 0.65625 0.5625
vt 0.40625 0.5625
vt 0.40625 0.5
vt 0.53125 1
vt 0.40625 0.8125
vt 0.65625 0.8125
vt 0.53125 0.78125
vt 0.40625 0.59375
vt 0.65625 0.59375
vn 0.9885200936804556 2.5772614782185146e-16 0.15108945823578596
vn -0.519667228248593 1.626941433306218e-15 0.85436875638358
vn -0.4226182617406996 -1.6988164002404852e-15 -0.9063077870366499
vn 3.931989725334295e-18 1 -1.961826429712948e-15
vn 3.931989725334295e-18 1 -1.961826429712948e-15
usemtl m_7a3f162c-0131-4880-f728-2a5f2dc6f035
f 10/25/7 9/26/7 11/27/7 12/28/7
f 13/29/8 9/30/8 10/31/8 14/32/8
f 12/33/9 11/34/9 13/35/9 14/36/9
f 9/37/10 11/38/10 13/39/10
f 10/40/11 12/41/11 14/42/11
o base
v 0.035324309376148715 0.0875 -0.17031637323707277
v 0.003627939745596248 0.0875 -0.23828945726482154
v 0.035324309376148715 0.025 -0.17031637323707277
v 0.003627939745596248 0.025 -0.23828945726482154
v -0.032648774651600036 0.0875 -0.13862000360652033
v -0.0643451442821525 0.0875 -0.2065930876342691
v -0.032648774651600036 0.025 -0.13862000360652033
v -0.0643451442821525 0.025 -0.2065930876342691
vt 0.4375 1
vt 0.40625 1
vt 0.40625 0.96875
vt 0.4375 0.96875
vt 0.4375 0.75
vt 0.4375 0.78125
vt 0.40625 0.78125
vt 0.40625 0.75
vt 0.65625 0.90625
vt 0.6875 0.90625
vt 0.6875 0.9375
vt 0.65625 0.9375
vt 0.6875 0.6875
vt 0.6875 0.71875
vt 0.65625 0.71875
vt 0.65625 0.6875
vt 0.625 0.3125
vt 0.625 0.34375
vt 0.59375 0.34375
vt 0.59375 0.3125
vt 0.6875 0.34375
vt 0.65625 0.34375
vt 0.65625 0.3125
vt 0.6875 0.3125
vn 0.9063077870366499 0 -0.42261826174069944
vn -0.9063077870366499 0 0.42261826174069944
vn 0 1 0
vn 0 -1 0
vn 0.42261826174069944 0 0.9063077870366499
vn -0.42261826174069944 0 -0.9063077870366499
usemtl m_7a3f162c-0131-4880-f728-2a5f2dc6f035
f 16/43/12 15/44/12 17/45/12 18/46/12
f 21/47/13 19/48/13 20/49/13 22/50/13
f 19/51/14 15/52/14 16/53/14 20/54/14
f 18/55/15 17/56/15 21/57/15 22/58/15
f 17/59/16 15/60/16 19/61/16 21/62/16
f 20/63/17 16/64/17 18/65/17 22/66/17
o base
v -0.09190387183260716 0.13125000000000003 -0.22132668990254722
v -0.12360024146315962 0.13125000000000003 -0.289299773930296
v -0.09190387183260716 0.06875 -0.22132668990254722
v -0.12360024146315962 0.06875 -0.289299773930296
v -0.1598769558603559 0.13125000000000003 -0.18963032027199478
v -0.19157332549090836 0.13125000000000003 -0.2576034042997435
v -0.1598769558603559 0.06875 -0.18963032027199478
v -0.19157332549090836 0.06875 -0.2576034042997435
vt 0.625 0.28125
vt 0.59375 0.28125
vt 0.59375 0.25
vt 0.625 0.25
vt 0.6875 0.25
vt 0.6875 0.28125
vt 0.65625 0.28125
vt 0.65625 0.25
vt 0.71875 0.3125
vt 0.75 0.3125
vt 0.75 0.34375
vt 0.71875 0.34375
vt 0.75 0.25
vt 0.75 0.28125
vt 0.71875 0.28125
vt 0.71875 0.25
vt 0.78125 0.84375
vt 0.78125 0.875
vt 0.75 0.875
vt 0.75 0.84375
vt 0.78125 0.65625
vt 0.75 0.65625
vt 0.75 0.625
vt 0.78125 0.625
vn 0.9063077870366499 0 -0.42261826174069944
vn -0.9063077870366499 0 0.42261826174069944
vn 0 1 0
vn 0 -1 0
vn 0.42261826174069944 0 0.9063077870366499
vn -0.42261826174069944 0 -0.9063077870366499
usemtl m_7a3f162c-0131-4880-f728-2a5f2dc6f035
f 24/67/18 23/68/18 25/69/18 26/70/18
f 29/71/19 27/72/19 28/73/19 30/74/19
f 27/75/20 23/76/20 24/77/20 28/78/20
f 26/79/21 25/80/21 29/81/21 30/82/21
f 25/83/22 23/84/22 27/85/22 29/86/22
f 28/87/23 24/88/23 26/89/23 30/90/23
o base
v -0.09610252120203068 0.10625000000000001 -0.06765436369033478
v -0.1277988908325831 0.10625000000000001 -0.13562744771808352
v -0.09610252120203068 0.04375 -0.06765436369033478
v -0.1277988908325831 0.04375 -0.13562744771808352
v -0.16407560522977943 0.10625000000000001 -0.03595799405978234
v -0.19577197486033188 0.10625000000000001 -0.10393107808753108
v -0.16407560522977943 0.04375 -0.03595799405978234
v -0.19577197486033188 0.04375 -0.10393107808753108
vt 0.78125 0.59375
vt 0.75 0.59375
vt 0.75 0.5625
vt 0.78125 0.5625
vt 0.78125 0.5
vt 0.78125 0.53125
vt 0.75 0.53125
vt 0.75 0.5
vt 0.78125 0.90625
vt 0.8125 0.90625
vt 0.8125 0.9375
vt 0.78125 0.9375
vt 0.8125 0.6875
vt 0.8125 0.71875
vt 0.78125 0.71875
vt 0.78125 0.6875
vt 0.4375 0.1875
vt 0.4375 0.21875
vt 0.40625 0.21875
vt 0.40625 0.1875
vt 0.5 0.21875
vt 0.46875 0.21875
vt 0.46875 0.1875
vt 0.5 0.1875
vn 0.9063077870366499 0 -0.42261826174069944
vn -0.9063077870366499 0 0.42261826174069944
vn 0 1 0
vn 0 -1 0
vn 0.42261826174069944 0 0.9063077870366499
vn -0.42261826174069944 0 -0.9063077870366499
usemtl m_7a3f162c-0131-4880-f728-2a5f2dc6f035
f 32/91/24 31/92/24 33/93/24 34/94/24
f 37/95/25 35/96/25 36/97/25 38/98/25
f 35/99/26 31/100/26 32/101/26 36/102/26
f 34/103/27 33/104/27 37/105/27 38/106/27
f 33/107/28 31/108/28 35/109/28 37/110/28
f 36/111/29 32/112/29 34/113/29 38/114/29
o base
v 0.16974369584276494 0.11250000000000002 -0.1778282666028277
v 0.13804732621221247 0.11250000000000002 -0.24580135063057645
v 0.16974369584276494 0.05 -0.1778282666028277
v 0.13804732621221247 0.05 -0.24580135063057645
v 0.1017706118150162 0.11250000000000002 -0.14613189697227524
v 0.07007424218446372 0.11250000000000002 -0.214104981000024
v 0.1017706118150162 0.05 -0.14613189697227524
v 0.07007424218446372 0.05 -0.214104981000024
vt 0.71875 0.875
vt 0.6875 0.875
vt 0.6875 0.84375
vt 0.71875 0.84375
vt 0.71875 0.625
vt 0.71875 0.65625
vt 0.6875 0.65625
vt 0.6875 0.625
vt 0.6875 0.5625
vt 0.71875 0.5625
vt 0.71875 0.59375
vt 0.6875 0.59375
vt 0.71875 0.5
vt 0.71875 0.53125
vt 0.6875 0.53125
vt 0.6875 0.5
vt 0.75 0.90625
vt 0.75 0.9375
vt 0.71875 0.9375
vt 0.71875 0.90625
vt 0.75 0.71875
vt 0.71875 0.71875
vt 0.71875 0.6875
vt 0.75 0.6875
vn 0.9063077870366499 0 -0.42261826174069944
vn -0.9063077870366499 0 0.42261826174069944
vn 0 1 0
vn 0 -1 0
vn 0.42261826174069944 0 0.9063077870366499
vn -0.42261826174069944 0 -0.9063077870366499
usemtl m_7a3f162c-0131-4880-f728-2a5f2dc6f035
f 40/115/30 39/116/30 41/117/30 42/118/30
f 45/119/31 43/120/31 44/121/31 46/122/31
f 43/123/32 39/124/32 40/125/32 44/126/32
f 42/127/33 41/128/33 45/129/33 46/130/33
f 41/131/34 39/132/34 43/133/34 45/134/34
f 44/135/35 40/136/35 42/137/35 46/138/35